HIERARCHY
ROOT Hips
{
	OFFSET 0.00 0.00 0.00
	CHANNELS 6 Xposition Yposition Zposition Xrotation Yrotation Zrotation
	JOINT Spine
	{
		OFFSET 0.00000 6.11665 0.00000
		CHANNELS 3 Xrotation Yrotation Zrotation
		JOINT Head
		{
			OFFSET 0.00000 15.22556 0.00000
			CHANNELS 3 Xrotation Yrotation Zrotation
			End Site
			{
				OFFSET 0.00000 4.52755 0.00000
			}
		}
		JOINT LeftShoulder
		{
			OFFSET 0.00000 8.97765 0.00000
			CHANNELS 3 Xrotation Yrotation Zrotation
			JOINT LeftArm
			{
				OFFSET 7.11013 0.00000 0.00000
				CHANNELS 3 Xrotation Yrotation Zrotation
				JOINT LeftForeArm
				{
					OFFSET 10.39834 0.00000 0.00000
					CHANNELS 3 Yrotation Zrotation Xrotation
					JOINT LeftHand
					{
						OFFSET 8.88900 0.00000 0.00000
						CHANNELS 3 Xrotation Yrotation Zrotation
						JOINT LeftHandThumb1
						{
							OFFSET 0.00000 0.00000 0.00000
							CHANNELS 3 Xrotation Zrotation Yrotation
							End Site
							{
								OFFSET 0.00000 0.00000 3.93700
							}
						}
						End Site
						{
							OFFSET 3.93700 0.00000 0.00000
						}
					}
				}
			}
		}
		JOINT RightShoulder
		{
			OFFSET 0.00000 8.97765 0.00000
			CHANNELS 3 Xrotation Yrotation Zrotation
			JOINT RightArm
			{
				OFFSET -7.11013 0.00000 0.00000
				CHANNELS 3 Xrotation Yrotation Zrotation
				JOINT RightForeArm
				{
					OFFSET -10.39834 0.00000 0.00000
					CHANNELS 3 Yrotation Zrotation Xrotation
					JOINT RightHand
					{
						OFFSET -8.88900 0.00000 0.00000
						CHANNELS 3 Xrotation Yrotation Zrotation
						JOINT RightHandThumb1
						{
							OFFSET 0.00000 0.00000 0.00000
							CHANNELS 3 Xrotation Zrotation Yrotation
							End Site
							{
								OFFSET 0.00000 0.00000 3.93700
							}
						}
						End Site
						{
							OFFSET -3.93700 0.00000 0.00000
						}
					}
				}
			}
		}
	}
	JOINT LeftUpLeg
	{
		OFFSET 4.71176 0.00000 0.00000
		CHANNELS 3 Xrotation Yrotation Zrotation
		JOINT LeftLeg
		{
			OFFSET 0.00000 -15.51045 0.00000
			CHANNELS 3 Xrotation Yrotation Zrotation
			JOINT LeftFoot
			{
				OFFSET 0.00000 -14.85806 0.00000
				CHANNELS 3 Xrotation Yrotation Zrotation
				JOINT LeftToeBase
				{
					OFFSET 0.00000 -1.32744 4.95409
					CHANNELS 3 Xrotation Yrotation Zrotation
					End Site
					{
						OFFSET 0.00000 0.00000 2.95275
					}
				}
			}
		}
	}
	JOINT RightUpLeg
	{
		OFFSET -4.71176 0.00000 0.00000
		CHANNELS 3 Xrotation Yrotation Zrotation
		JOINT RightLeg
		{
			OFFSET 0.00000 -15.51045 0.00000
			CHANNELS 3 Xrotation Yrotation Zrotation
			JOINT RightFoot
			{
				OFFSET 0.00000 -14.85806 0.00000
				CHANNELS 3 Xrotation Yrotation Zrotation
				JOINT RightToeBase
				{
					OFFSET 0.00000 -1.32744 4.95409
					CHANNELS 3 Xrotation Yrotation Zrotation
					End Site
					{
						OFFSET 0.00000 0.00000 2.95275
					}
				}
			}
		}
	}
}
MOTION
Frames: 19
Frame Time: 0.008333
 4.9732 32.3376 -2.6301 -1.6572 0.4057 1.1197 4.6791 4.1287 -1.7969 -14.2962 -4.2087 0.9313 -11.6621 7.1694 43.9106 -9.9353 -2.4732 -38.7211 10.7040 0.0000 14.7120 -0.8825 -5.1100 -9.8120 33.1476 -0.0000 26.2537 0.0299 -26.4963 -42.0665 -27.4466 -2.2335 40.9336 3.1698 -0.0000 16.5938 -3.5357 14.1408 14.1933 32.8623 0.0000 -24.3270 7.6149 -4.9093 -2.5969 1.2148 0.0000 0.0000 -12.8032 21.1532 -10.1451 19.5168 -0.0000 -0.0000 7.2063 -3.3284 4.5660 1.0626 0.0000 -0.0000 -10.6933 -19.8328 7.7221 9.4703 0.0000 -0.0000
 4.9717 32.3373 -2.6321 -1.6627 0.4116 1.1194 4.6889 4.1485 -1.8025 -14.2921 -4.2151 0.8897 -11.6856 7.1062 43.8860 -9.9183 -2.4468 -38.7130 10.6652 0.0000 14.6345 -0.8812 -5.1313 -9.7579 33.1476 -0.0000 26.2537 0.0421 -26.4919 -42.0572 -27.4132 -2.2852 40.9840 3.3086 -0.0000 16.5270 -3.4434 13.9605 14.0044 32.8623 0.0000 -24.3270 7.6176 -4.9276 -2.5917 1.2114 0.0000 0.0000 -12.8063 21.1587 -10.1382 19.5959 0.0000 0.0000 7.2132 -3.3069 4.5690 1.0483 0.0000 0.0000 -10.6774 -19.8463 7.6762 9.3452 0.0000 -0.0000
 4.9705 32.3375 -2.6350 -1.6600 0.4175 1.1218 4.6940 4.1324 -1.8068 -14.3240 -4.1958 0.9082 -11.6928 7.1165 43.8619 -9.9282 -2.4336 -38.7164 10.5981 0.0000 14.5330 -0.8744 -5.1443 -9.6605 33.1476 -0.0000 26.2537 0.0658 -26.4966 -42.0395 -27.4751 -2.3412 41.0363 3.3986 -0.0000 16.4775 -3.4527 14.0123 13.9920 32.8623 0.0000 -24.3270 7.6009 -4.9217 -2.5920 1.2267 0.0000 -0.0000 -12.8087 21.1566 -10.1556 19.6712 0.0000 -0.0000 7.2044 -3.3183 4.5697 1.0533 -0.0000 0.0000 -10.6849 -19.8477 7.6750 9.3142 0.0000 0.0000
 4.9690 32.3374 -2.6374 -1.6592 0.4260 1.1209 4.7002 4.1372 -1.8079 -14.3435 -4.2153 0.8929 -11.6834 7.1173 43.8314 -9.9933 -2.3762 -38.7181 10.4930 0.0000 14.5496 -0.8656 -5.1252 -9.5998 33.1476 -0.0000 26.2537 0.0536 -26.4787 -42.0133 -27.4857 -2.4265 41.0548 3.5399 -0.0000 16.3520 -3.4667 14.0729 13.9898 32.8623 0.0000 -24.3270 7.5922 -4.9165 -2.5903 1.2342 -0.0000 0.0000 -12.8068 21.1459 -10.1477 19.5426 -0.0000 0.0000 7.1990 -3.3292 4.5757 1.0526 0.0000 0.0000 -10.6748 -19.8510 7.6750 9.3007 -0.0000 -0.0000
 4.9680 32.3375 -2.6396 -1.6583 0.4254 1.1198 4.7042 4.1366 -1.8102 -14.3565 -4.2186 0.8886 -11.6830 7.1177 43.8156 -10.0315 -2.2987 -38.7403 10.3189 0.0000 14.6644 -0.8428 -5.0310 -9.5230 33.1476 -0.0000 26.2537 0.0351 -26.4489 -41.9963 -27.5111 -2.5437 41.0957 3.7243 -0.0000 16.3421 -3.4658 14.0970 13.9638 32.8623 0.0000 -24.3270 7.5863 -4.9153 -2.5879 1.2343 0.0000 -0.0000 -12.8070 21.1511 -10.1346 19.5378 0.0000 -0.0000 7.1901 -3.3169 4.5778 1.0628 0.0000 0.0000 -10.6772 -19.8595 7.6814 9.2830 -0.0000 0.0000
 4.9676 32.3371 -2.6415 -1.6623 0.4339 1.1229 4.7172 4.1359 -1.8148 -14.3763 -4.2348 0.8734 -11.6997 7.1139 43.7961 -10.0403 -2.2514 -38.7626 10.1232 0.0000 14.7717 -0.8412 -5.0507 -9.4689 33.1476 -0.0000 26.2537 -0.0027 -26.4348 -41.9833 -27.4682 -2.5908 41.1546 3.9381 -0.0000 16.2758 -3.4190 14.0541 13.8215 32.8623 0.0000 -24.3270 7.5805 -4.9589 -2.5906 1.2504 -0.0000 -0.0000 -12.8003 21.1921 -10.2052 19.4711 -0.0000 0.0000 7.1876 -3.3247 4.5769 1.0694 -0.0000 0.0000 -10.6829 -19.8600 7.6688 9.2531 0.0000 0.0000
 4.9665 32.3369 -2.6438 -1.6657 0.4422 1.1216 4.7264 4.1184 -1.8185 -14.3847 -4.2221 0.8792 -11.6979 7.1219 43.7832 -9.9481 -2.3130 -38.7984 9.9847 0.0000 14.7560 -0.8482 -5.1323 -9.3973 33.1476 -0.0000 26.2537 0.0278 -26.4515 -41.9505 -27.5102 -2.6458 41.2363 4.1373 -0.0000 16.1931 -3.3660 13.9837 13.6795 32.8623 0.0000 -24.3270 7.5751 -4.9606 -2.5856 1.2583 0.0000 -0.0000 -12.8300 21.1701 -10.1401 19.4788 -0.0000 -0.0000 7.1838 -3.3456 4.5806 1.0822 0.0000 -0.0000 -10.6981 -19.8434 7.6773 9.4953 0.0000 -0.0000
 4.9654 32.3365 -2.6455 -1.6679 0.4480 1.1265 4.7322 4.1131 -1.8343 -14.3856 -4.2344 0.8878 -11.6820 7.1546 43.7745 -9.9499 -2.2900 -38.8418 9.7264 0.0000 14.8777 -0.8216 -5.0117 -9.3222 33.1476 -0.0000 26.2537 -0.0014 -26.3928 -41.9055 -27.4884 -2.7719 41.2630 4.3916 -0.0000 16.1899 -3.3419 13.9630 13.6041 32.8623 0.0000 -24.3270 7.5721 -4.9674 -2.5865 1.2517 0.0000 0.0000 -12.8035 21.1781 -10.1732 19.5040 -0.0000 0.0000 7.1815 -3.3484 4.5805 1.0839 0.0000 -0.0000 -10.7003 -19.8473 7.6501 9.3497 -0.0000 0.0000
 4.9624 32.3364 -2.6474 -1.6734 0.4519 1.1104 4.7427 4.1113 -1.8279 -14.3906 -4.2520 0.8993 -11.6560 7.1841 43.7628 -9.8818 -2.3437 -38.8983 9.5122 0.0000 14.8577 -0.8128 -5.0898 -9.0850 33.1476 -0.0000 26.2537 0.0097 -26.3915 -41.8457 -27.4368 -2.8040 41.3240 4.6509 -0.0000 16.0770 -3.3068 14.0828 13.3578 32.8623 0.0000 -24.3270 7.5754 -4.9742 -2.5643 1.2506 0.0000 -0.0000 -12.8174 21.1870 -10.1511 19.5143 -0.0000 -0.0000 7.1798 -3.3659 4.6018 1.0941 0.0000 -0.0000 -10.6879 -19.8422 7.6657 9.2815 -0.0000 0.0000
 4.9605 32.3360 -2.6489 -1.6795 0.4507 1.1063 4.7509 4.1112 -1.8362 -14.3860 -4.2567 0.9124 -11.6611 7.1787 43.7296 -9.6301 -2.5046 -38.9243 9.2661 0.0000 14.7264 -0.8095 -5.0601 -9.1008 33.1476 -0.0000 26.2537 0.0365 -26.4048 -41.7938 -27.4232 -2.8521 41.4237 4.9765 -0.0000 15.9520 -3.1628 13.8536 12.9951 32.8623 0.0000 -24.3270 7.5736 -4.9496 -2.5558 1.2665 0.0000 -0.0000 -12.8219 21.1593 -10.1898 19.5229 -0.0000 0.0000 7.1765 -3.3745 4.6074 1.1096 0.0000 -0.0000 -10.6953 -19.8305 7.6659 9.3128 -0.0000 0.0000
 4.9599 32.3355 -2.6507 -1.6824 0.4530 1.1073 4.7548 4.1021 -1.8468 -14.3780 -4.2842 0.9284 -11.6559 7.1568 43.7045 -9.4890 -2.5163 -38.9699 8.9488 0.0000 14.7658 -0.7739 -4.8603 -9.0587 33.1476 -0.0000 26.2537 0.0263 -26.3626 -41.7301 -27.3379 -2.9053 41.4939 5.3061 -0.0000 15.8860 -3.0874 13.9566 12.6061 32.8623 0.0000 -24.3270 7.5762 -4.9684 -2.5557 1.2569 -0.0000 -0.0000 -12.8372 21.1642 -10.1438 19.5888 -0.0000 0.0000 7.1742 -3.3909 4.6079 1.1147 -0.0000 0.0000 -10.6953 -19.8103 7.6612 9.2953 0.0000 0.0000
 4.9583 32.3350 -2.6528 -1.6878 0.4473 1.1065 4.7644 4.1044 -1.8544 -14.3795 -4.3076 0.9261 -11.6266 7.1791 43.6617 -9.3964 -2.4732 -39.0152 8.5011 0.0000 14.8718 -0.7512 -4.8394 -8.8340 33.1476 -0.0000 26.2537 0.0287 -26.3439 -41.6687 -27.2443 -2.9437 41.5955 5.6699 -0.0000 15.7557 -3.0303 14.0868 12.2708 32.8623 0.0000 -24.3270 7.5782 -4.9506 -2.5527 1.2592 -0.0000 -0.0000 -12.8282 21.1622 -10.1761 19.4972 0.0000 -0.0000 7.1682 -3.3674 4.6114 1.1275 0.0000 -0.0000 -10.7132 -19.8358 7.6487 9.3283 0.0000 0.0000
 4.9569 32.3339 -2.6545 -1.6914 0.4428 1.1115 4.7797 4.1088 -1.8839 -14.3892 -4.3085 0.9368 -11.6030 7.2143 43.6562 -9.2361 -2.4823 -39.1154 7.9604 0.0000 14.8819 -0.7318 -4.8162 -8.6508 33.1476 -0.0000 26.2537 0.0737 -26.3718 -41.6104 -27.2185 -3.1179 41.7844 6.1857 -0.0000 15.7988 -2.9733 14.1491 11.9959 32.8623 0.0000 -24.3270 7.5795 -4.9536 -2.5551 1.2583 0.0000 0.0000 -12.8438 21.1667 -10.1685 19.5732 0.0000 -0.0000 7.1661 -3.3758 4.6093 1.1330 -0.0000 0.0000 -10.7234 -19.8162 7.6226 9.2933 -0.0000 0.0000
 4.9550 32.3332 -2.6563 -1.6969 0.4422 1.1075 4.7980 4.1146 -1.8816 -14.4445 -4.3508 0.9449 -11.5474 7.2556 43.6210 -9.2756 -2.2010 -39.2101 7.1869 0.0000 15.1418 -0.7091 -4.7448 -8.5097 33.1476 -0.0000 26.2537 0.0413 -26.3181 -41.5593 -27.0589 -3.3065 41.9228 6.8481 -0.0000 15.6372 -2.8092 13.9976 11.4677 32.8623 0.0000 -24.3270 7.5805 -4.9256 -2.5489 1.2663 -0.0000 0.0000 -12.8443 21.1473 -10.1731 19.5257 0.0000 0.0000 7.1631 -3.3930 4.6161 1.1459 0.0000 -0.0000 -10.7193 -19.7953 7.6266 9.2994 -0.0000 0.0000
 4.9544 32.3316 -2.6580 -1.6935 0.4385 1.1204 4.8108 4.1059 -1.9084 -14.5015 -4.3710 0.9611 -11.5404 7.2599 43.5931 -9.1080 -1.9448 -39.3160 6.2040 0.0000 15.1973 -0.6770 -4.6953 -8.2138 33.1476 -0.0000 26.2537 0.0655 -26.3066 -41.5100 -26.9564 -3.5630 42.1460 7.5820 -0.0000 15.6206 -2.7537 14.0318 11.2205 32.8623 0.0000 -24.3270 7.5744 -4.9164 -2.5615 1.2618 -0.0000 0.0000 -12.8500 21.1494 -10.1705 19.5903 0.0000 -0.0000 7.1537 -3.3583 4.6043 1.1486 0.0000 -0.0000 -10.7615 -19.8373 7.6347 9.4213 -0.0000 0.0000
 4.9523 32.3313 -2.6605 -1.6970 0.4339 1.1232 4.8465 4.0972 -1.9202 -14.5963 -4.3718 0.9517 -11.5241 7.2774 43.4937 -8.4328 -2.0405 -39.3904 5.0767 0.0000 14.6378 -0.6668 -4.8084 -7.9040 33.1476 -0.0000 26.2537 0.0624 -26.2590 -41.4270 -26.8747 -3.9600 42.3293 8.5077 -0.0000 15.5977 -2.6481 13.9957 10.8264 32.8623 0.0000 -24.3270 7.5740 -4.9265 -2.5600 1.2622 0.0000 -0.0000 -12.8394 21.1577 -10.1941 19.5232 -0.0000 0.0000 7.1455 -3.3402 4.6067 1.1592 0.0000 0.0000 -10.7654 -19.8516 7.5990 9.3178 0.0000 -0.0000
 4.9501 32.3307 -2.6629 -1.6923 0.4336 1.1246 4.8744 4.0941 -1.9256 -14.6974 -4.3820 0.9366 -11.4202 7.4357 43.4546 -8.6872 -1.3047 -39.5551 3.3990 0.0000 14.8983 -0.6439 -4.6370 -7.9145 33.1476 -0.0000 26.2537 0.0833 -26.2545 -41.3743 -26.7887 -4.4503 42.6092 9.5815 -0.0000 15.6172 -2.5365 13.9914 10.3827 32.8623 0.0000 -24.3270 7.5643 -4.9196 -2.5580 1.2628 0.0000 -0.0000 -12.8446 21.1453 -10.1820 19.5021 0.0000 -0.0000 7.1301 -3.3505 4.6101 1.1740 -0.0000 -0.0000 -10.7811 -19.8439 7.5829 9.3176 -0.0000 -0.0000
 4.9467 32.3303 -2.6657 -1.6867 0.4271 1.1202 4.9107 4.1015 -1.9394 -14.8197 -4.3827 0.9531 -11.2981 7.6250 43.4133 -9.0704 -0.4231 -39.7671 1.5304 0.0000 15.4980 -0.6346 -4.5613 -7.9287 33.1476 -0.0000 26.2537 0.1193 -26.2547 -41.2393 -26.7514 -5.0318 42.8455 10.8125 -0.0000 15.6564 -2.4335 13.9599 9.9908 32.8623 0.0000 -24.3270 7.5565 -4.9015 -2.5520 1.2697 -0.0000 0.0000 -12.8418 21.1409 -10.2034 19.4715 -0.0000 0.0000 7.1140 -3.3482 4.6187 1.1826 -0.0000 -0.0000 -10.7722 -19.8353 7.5914 9.2789 0.0000 -0.0000
 4.9426 32.3307 -2.6694 -1.6765 0.4251 1.1037 4.9493 4.1033 -1.9293 -14.9587 -4.3933 0.9452 -11.1558 7.8254 43.2938 -9.1395 0.3100 -39.9488 -0.5907 0.0000 15.7010 -0.6408 -4.6101 -7.9223 33.1476 -0.0000 26.2537 0.1355 -26.2730 -41.1131 -26.7056 -5.5942 43.1185 12.1141 -0.0000 15.6829 -2.3270 13.7950 9.6713 32.8623 0.0000 -24.3270 7.5441 -4.8865 -2.5254 1.2587 0.0000 -0.0000 -12.8514 21.1230 -10.1762 19.5560 -0.0000 0.0000 7.0887 -3.3894 4.6424 1.2051 -0.0000 -0.0000 -10.7581 -19.7980 7.5849 9.2671 -0.0000 -0.0000
